<?xml version="1.0" encoding="UTF-8" standalone="no"?>
<svg
   xmlns:dc="http://purl.org/dc/elements/1.1/"
   xmlns:cc="http://creativecommons.org/ns#"
   xmlns:rdf="http://www.w3.org/1999/02/22-rdf-syntax-ns#"
   xmlns:svg="http://www.w3.org/2000/svg"
   xmlns="http://www.w3.org/2000/svg"
   id="svg67"
   viewBox="0 0 226.77318 254.00002"
   style="clip-rule:evenodd;fill-rule:evenodd;image-rendering:optimizeQuality;shape-rendering:geometricPrecision;text-rendering:geometricPrecision"
   version="1.1"
   height="254.00002"
   width="226.77318"
   xml:space="preserve"><metadata
   id="metadata71"><rdf:RDF><cc:Work
       rdf:about=""><dc:format>image/svg+xml</dc:format><dc:type
         rdf:resource="http://purl.org/dc/dcmitype/StillImage" /><dc:title></dc:title></cc:Work></rdf:RDF></metadata>
 <defs
   id="defs4">
  <style
   id="style2"
   type="text/css">
   <![CDATA[
    .fil1 {fill:#093782}
    .fil3 {fill:#0B3782}
    .fil2 {fill:#D1052A}
    .fil0 {fill:white}
   ]]>
  </style>
 </defs>
 <g
   transform="matrix(0.09015507,0,0,0.09015507,-1.2455825,-21.440318)"
   id="Layer_x0020_1">
  <metadata
   id="CorelCorpID_0Corel-Layer" />
  <g
   id="_2041888592048">
   <path
   style="fill:#ffffff"
   id="path7"
   d="m 1271,294 c 664,0 1202,606 1202,1353 0,747 -538,1352 -1202,1352 C 608,2999 70,2394 70,1647 70,900 608,294 1271,294 Z"
   class="fil0" />
   <path
   style="fill:#093782"
   id="path9"
   d="m 1271,260 c 342,0 652,156 875,408 223,251 361,597 361,979 0,382 -138,728 -361,979 -223,252 -533,407 -875,407 C 929,3033 620,2878 396,2626 174,2375 36,2029 36,1647 36,1265 174,919 396,668 620,416 929,260 1271,260 Z m 0,34 c 664,0 1202,606 1202,1353 0,747 -538,1352 -1202,1352 C 608,2999 70,2394 70,1647 70,900 608,294 1271,294 Z"
   class="fil1" />
   <g
   id="g63">
    <g
   id="g15">
     <path
   style="fill:#093782"
   id="path11"
   d="m 1271,294 c 664,0 1202,606 1202,1353 0,747 -538,1352 -1202,1352 C 608,2999 70,2394 70,1647 70,900 608,294 1271,294 Z"
   class="fil1" />
     <path
   style="fill:#ffffff"
   id="path13"
   d="m 1271,294 c 664,0 1202,606 1202,1353 0,747 -538,1352 -1202,1352 C 608,2999 70,2394 70,1647 70,900 608,294 1271,294 Z m 828,416 C 1887,471 1595,324 1271,324 948,324 656,471 444,710 231,949 99,1281 99,1647 c 0,366 132,697 345,937 212,239 504,386 827,386 324,0 616,-147 828,-386 213,-240 345,-571 345,-937 0,-366 -132,-698 -345,-937 z"
   class="fil0" />
    </g>
    <path
   style="fill:#d1052a"
   id="path17"
   d="m 2271,1199 c -34,153 7,613 65,390 36,272 -69,416 -215,566 43,-9 111,-66 161,-128 -21,177 -94,260 -175,327 31,-6 63,-13 94,-20 -43,77 -181,255 -496,240 -129,75 -278,118 -437,118 -159,0 -308,-43 -437,-118 -315,15 -453,-163 -496,-240 31,7 63,14 94,20 -81,-67 -154,-150 -175,-327 50,62 118,119 161,128 -146,-150 -251,-294 -215,-566 58,223 99,-237 65,-390 139,96 94,285 74,458 16,-17 21,-19 37,-36 0,0 -8,152 26,223 -1,-6 -1,-12 -1,-18 h 1 c -1,-8 -1,-15 -1,-22 0,-479 388,-867 867,-867 479,0 867,388 867,867 0,7 0,14 -1,22 h 1 c 0,6 0,12 -1,18 34,-71 26,-223 26,-223 16,17 21,19 37,36 -20,-173 -65,-362 74,-458 z m -418,19 c -149,-149 -356,-242 -585,-242 -229,0 -436,93 -585,242 -150,150 -243,357 -243,586 0,228 93,435 243,585 149,150 356,242 585,242 229,0 436,-92 585,-242 150,-150 243,-357 243,-585 0,-229 -93,-436 -243,-586 z m 281,630 c 1,0 1,-1 0,-1 0,0 0,1 0,1 z m -1732,0 c 0,0 0,-1 0,-1 -1,0 -1,1 0,1 z"
   class="fil2" />
    <g
   id="g61">
     <g
   id="g33">
      <path
   style="fill:#ffffff"
   id="path19"
   d="m 557,759 c 14,-20 28,-42 43,-62 21,91 42,182 64,273 16,-2 22,19 4,29 -21,14 -44,29 -65,43 -8,-7 -8,-20 10,-35 l -8,-53 c -17,11 -37,24 -54,35 l -12,57 c 16,6 21,17 9,26 -14,10 -29,19 -43,29 -17,-6 -5,-21 8,-39 17,-98 32,-192 49,-290 z m 19,77 -20,123 41,-29 z"
   class="fil0" />
      <path
   style="fill:#ffffff"
   id="path21"
   d="m 682,624 c 27,-18 63,-43 91,-61 35,-16 68,-6 74,31 9,50 -2,102 -53,153 57,-16 45,132 75,127 0,7 1,15 1,22 l -56,27 C 793,867 782,754 754,781 l -1,136 c 19,5 23,24 0,35 -19,9 -37,19 -56,29 -14,6 -20,-14 1,-32 0,-95 -2,-204 -2,-298 l -15,-9 z m 68,-16 c 0,47 2,98 2,145 33,-23 57,-67 42,-135 -6,-25 -27,-20 -44,-10 z"
   class="fil0" />
      <path
   style="fill:#ffffff"
   id="path23"
   d="m 1039,446 c 0,28 1,59 1,87 -7,3 -15,7 -22,11 -2,-56 -31,-54 -69,-33 1,47 3,94 4,141 20,4 33,-10 36,-47 8,-3 15,-5 22,-8 1,35 2,70 4,105 -7,5 -13,10 -19,16 -9,-30 -22,-42 -40,-30 0,51 1,105 1,156 63,-6 61,-22 78,-86 7,-3 15,-5 23,-8 0,34 0,71 0,105 -57,15 -115,31 -172,46 0,-8 -1,-15 -2,-23 5,-6 10,-11 14,-17 -2,-106 -4,-213 -6,-319 -6,-4 -11,-8 -17,-13 0,-6 0,-15 0,-21 55,-21 109,-42 164,-62 z"
   class="fil0" />
      <polygon
   style="fill:#ffffff"
   id="polygon25"
   points="1060,456 1059,435 1162,429 1192,622 1217,421 1317,413 1319,436 1306,449 1310,801 1326,819 1327,843 1237,844 1236,820 1251,806 1245,469 1198,844 1176,845 1114,482 1122,807 1138,824 1138,846 1070,846 1070,823 1084,808 1084,805 1074,474 "
   class="fil0" />
      <path
   style="fill:#ffffff"
   id="path27"
   d="m 1407,449 54,-23 81,406 16,11 v 22 l -94,-5 -1,-24 18,-12 -11,-73 -67,-5 -12,65 17,18 v 24 l -67,-11 1,-21 14,-17 c 17,-98 39,-233 55,-331 z m 25,122 -20,138 48,5 z"
   class="fil0" />
      <path
   style="fill:#ffffff"
   id="path29"
   d="m 1653,510 18,23 3,325 -15,8 v 22 l 88,31 v -22 l -15,-19 -2,-144 c 46,11 21,60 62,61 v -89 c -7,-4 -14,-9 -22,-14 -13,31 -15,24 -41,13 -1,-48 -2,-96 -3,-145 96,30 41,94 93,107 l -1,-83 -164,-98 z"
   class="fil0" />
      <path
   style="fill:#ffffff"
   id="path31"
   d="m 1987,818 c 0,-26 -1,-48 -1,-74 l -19,-22 c -7,9 3,-4 -3,5 -51,-85 -106,-90 -117,-37 -58,270 136,410 150,282 -8,-7 -17,-13 -25,-20 -17,91 -77,1 -78,-120 -1,-168 26,-182 70,-34 8,7 15,14 23,20 z"
   class="fil0" />
     </g>
     <g
   id="g43">
      <path
   style="fill:#ffffff"
   id="path35"
   d="m 1268,1019 c 434,0 785,351 785,785 0,433 -351,785 -785,785 -434,0 -785,-352 -785,-785 0,-434 351,-785 785,-785 z"
   class="fil0" />
      <g
   id="g41">
       <path
   style="fill:#0b3782"
   id="path37"
   d="m 1503,2054 c -22,11 -9,20 -35,27 -15,-14 -14,-45 -30,-59 1,-28 -19,-49 -16,-94 5,-52 8,-57 -23,-85 -21,-18 -36,-36 -56,-53 -28,-25 -27,-38 -34,-72 l -3,-49 c 48,-9 127,34 146,-21 6,-10 6,-27 4,-40 -17,-32 -56,-6 -94,-24 -27,-12 -46,-27 -43,-58 v 0 c 0,-4 1,-8 2,-13 25,-10 40,-4 53,5 v 0 c 14,11 25,26 41,33 17,-7 33,-29 43,-42 42,-55 30,-157 -20,-191 -34,-23 -176,-4 -246,-13 -23,-3 -52,-18 -56,-29 -40,-14 -64,-19 -113,-15 -23,2 -86,13 -102,23 -27,6 -47,17 -78,9 -26,-7 -46,-23 -72,-22 -3,63 23,141 15,177 -4,20 -19,22 -30,32 -31,16 -53,71 -68,109 -6,15 -44,121 -46,124 -11,64 -43,134 -50,201 -6,11 -29,115 -28,135 2,29 19,38 31,54 22,31 4,39 11,71 46,26 25,-24 60,65 15,39 28,50 50,72 66,63 80,-60 95,-113 24,-84 107,-65 103,37 -4,92 -23,168 95,139 -3,33 -3,51 19,67 38,27 96,21 124,-27 14,-23 14,-41 25,-56 l 18,10 c 28,27 58,62 91,90 54,47 38,-51 112,-43 33,4 70,19 103,23 48,6 49,-22 62,-60 14,-42 32,-90 61,-126 23,-26 51,-64 75,-21 34,35 43,33 74,2 31,-39 107,-116 173,-173 95,-40 54,-76 46,-160 -19,-35 -45,-110 -240,108 -66,48 -63,-125 10,-183 62,-52 65,-207 13,-312 -33,-58 -90,-36 -151,-1 -19,13 -35,23 -43,22 -16,-6 -40,-43 -62,-5 -44,75 37,168 52,211 15,45 -3,118 -11,166 -16,90 -7,77 -54,138 -4,5 -3,4 -3,10 z"
   class="fil3" />
       <path
   style="fill:#ffffff"
   id="path39"
   d="m 1827,2089 c -40,46 0,51 29,23 31,-28 19,-65 -29,-23 z m -487,-490 c -11,-12 -41,-17 -59,-22 -12,28 13,40 28,53 14,11 37,30 59,18 23,-26 -5,-42 -28,-49 z m -85,274 c 11,5 26,28 33,41 12,21 12,42 23,57 30,0 49,-45 7,-95 l -9,-13 c -16,-7 -7,-2 -19,-15 l -39,-34 c -9,-9 -8,-12 -24,-13 -4,32 20,47 28,72 z m 270,219 -6,-2 c -53,4 -48,46 -79,37 -11,-8 -16,-23 -23,-38 -9,-17 -16,-25 -22,-43 -5,-5 -11,-23 -30,-14 -15,23 9,54 17,75 13,32 18,49 42,64 32,18 105,16 101,-79 z m 7,-18 c 1,0 2,0 2,1 0,1 2,1 2,1 l 21,4 c 29,-33 27,-25 32,-77 -1,-1 -2,-2 -2,-2 l -19,-20 c -16,12 -13,21 -23,40 -13,24 -17,18 -13,53 z m 160,-112 c 4,-12 -9,-24 -19,0 -13,46 5,73 14,105 9,17 39,21 27,-21 -7,-14 -16,-24 -22,-41 -4,-18 -2,-31 0,-43 z m -150,336 c 18,-1 14,-2 20,-16 17,-37 46,-54 25,-79 -25,1 -27,16 -38,37 -13,22 -22,34 -7,58 z m -313,-652 c -2,22 -11,37 -6,66 2,11 6,16 11,25 7,13 9,13 11,25 18,12 32,49 51,67 22,28 34,-3 23,-26 -7,-5 -25,-33 -26,-44 -9,-9 1,7 -9,-11 0,0 -3,-9 -3,-9 -8,-31 16,-102 -20,-110 -14,-3 -20,10 -32,17 z m -131,235 c 9,10 46,70 56,86 28,46 3,87 13,135 49,36 69,-12 65,-66 -5,-69 -39,-90 -43,-115 -12,-6 -28,-30 -38,-42 -4,-7 -5,-6 -9,-13 -10,-15 -5,-4 -6,-17 -61,-41 -7,-181 -77,-170 -11,24 -8,82 0,112 9,34 29,57 39,90 z m -214,198 c -18,4 -32,15 -16,32 7,8 31,13 41,20 17,10 29,55 60,57 40,2 -1,-128 -85,-109 z m -106,101 c 17,0 19,-6 25,-17 8,-13 12,-21 11,-37 -43,-3 -57,24 -36,54 z m 619,-665 c 32,1 66,-39 59,-72 -19,-1 -29,25 -54,22 -37,-5 -46,-49 -116,10 -32,26 -39,-7 -68,9 -26,14 -5,37 14,45 61,27 49,-51 113,-48 29,2 31,21 52,34 z m -319,80 c 7,4 11,15 25,19 24,8 25,-3 35,-11 1,-36 -8,-55 -32,-68 l -22,1 c -8,23 -12,30 -6,59 z m 263,-203 c -4,21 5,22 15,32 19,8 44,23 64,11 5,-21 -8,-40 -22,-48 -23,-13 -41,2 -57,5 z m 98,-10 c 4,-25 -17,-53 -33,-38 -20,17 1,44 33,38 z m -692,427 c 0,15 -21,78 -24,108 -4,29 -6,97 25,109 24,-15 19,-74 22,-104 5,-38 14,-73 26,-105 21,-56 57,-126 88,-168 12,-17 18,-25 30,-42 9,-13 21,-27 29,-40 42,-68 8,-207 -113,58 -11,25 -74,176 -83,184 z m -1,-96 c 16,-19 22,-43 39,-65 20,-24 23,-44 1,-72 -29,-1 -21,1 -30,27 -9,26 -67,101 -10,110 z m -20,75 -2,2 c 42,-97 -24,-60 -31,-27 -5,25 5,37 20,32 8,-3 -1,0 6,-3 1,0 3,0 3,-2 1,-1 2,-1 4,-2 z m 164,62 c 9,42 32,40 36,101 2,42 -1,103 50,91 18,-15 11,-23 17,-46 -1,-1 -1,-2 -2,-3 l -5,-20 c -17,-78 -52,-105 -46,-146 4,-29 15,-60 20,-90 7,-37 11,-75 -34,-69 -21,33 -38,132 -36,182 z m -85,-408 c -6,6 -5,16 0,24 21,12 31,2 50,-8 18,-9 26,-11 20,-37 -22,-92 19,-38 17,-93 -17,-7 -61,-31 -87,-20 -12,15 -13,42 -8,61 5,23 24,20 30,44 -6,17 -11,13 -22,29 z m 316,-114 c 4,-42 -54,-34 -88,-33 -27,1 -94,-2 -99,23 -3,19 20,20 38,19 33,0 24,-14 48,-12 3,1 70,26 101,3 z m 98,79 c 16,-14 15,-11 11,-36 -8,-5 -10,-7 -23,-8 -26,-3 -44,-5 -53,17 -9,22 -6,45 7,58 25,2 41,-20 58,-31 z m 63,-81 c -29,4 -44,24 -19,43 16,12 98,13 107,-7 6,-12 1,-26 -7,-31 -13,-9 -65,-8 -81,-5 z m 342,210 c -33,10 -77,32 -83,52 -11,42 32,77 47,111 45,107 -31,218 -13,264 26,3 41,-22 49,-56 16,-103 17,-174 0,-209 -4,-10 -10,-20 -19,-33 -22,-37 -19,-62 19,-75 69,-18 107,-12 112,23 3,18 9,71 5,125 -2,30 -5,38 -17,60 l -51,93 c -3,30 11,41 20,6 12,-34 31,-54 46,-81 16,-24 30,-63 31,-77 6,-42 -1,-139 -5,-156 -8,-42 -30,-74 -141,-47 z m 233,399 c -7,13 3,20 15,15 24,-23 50,-38 61,-14 11,24 19,48 30,72 11,25 25,19 25,-20 l -32,-78 c -13,-22 -36,-24 -60,-10 -13,12 -26,23 -39,35 z m -83,186 c -51,47 -41,113 -8,79 45,-36 44,-113 8,-79 z"
   class="fil0" />
      </g>
     </g>
     <g
   id="g59">
      <polygon
   style="fill:#ffffff"
   id="polygon45"
   points="1533,2718 1533,2722 1512,2728 1505,2700 1569,2680 1565,2812 1541,2819 1543,2714 "
   class="fil0" />
      <path
   style="fill:#ffffff"
   id="path47"
   d="m 1419,2835 c 0,6 -4,10 -13,11 l -38,2 c -8,1 -13,-2 -13,-9 l -2,-21 24,-2 v 12 l 21,-1 -2,-26 -33,2 c -8,1 -12,-2 -13,-9 l -4,-56 c -1,-6 3,-10 11,-11 l 39,-2 c 9,-1 14,2 14,9 z m -48,-83 19,-1 c 1,0 2,1 2,2 l 2,21 c 0,1 -1,2 -2,3 l -19,1 c -1,0 -2,-1 -2,-2 l -2,-21 c 0,-1 1,-2 2,-3 z"
   class="fil0" />
      <path
   style="fill:#ffffff"
   id="path49"
   d="m 1331,2854 h -24 v -96 l -11,1 v -3 -26 c 7,0 15,-1 22,-1 10,1 12,8 12,15 z"
   class="fil0" />
      <polygon
   style="fill:#ffffff"
   id="polygon51"
   points="1185,2850 1193,2752 1174,2750 1175,2726 1240,2731 1238,2755 1217,2753 1210,2851 "
   class="fil0" />
      <path
   style="fill:#ffffff"
   id="path53"
   d="m 1145,2836 c -1,7 -6,9 -14,8 l -42,-6 c -8,-2 -13,-2 -11,-9 l 5,-31 22,4 -2,16 21,2 2,-28 -37,-5 c -4,0 -4,-7 -4,-11 l 7,-53 c 1,-7 6,-9 14,-8 l 40,5 c 9,1 12,6 11,12 l -4,27 -22,-2 3,-14 -22,-1 -2,26 35,3 c 4,0 5,8 5,13 z"
   class="fil0" />
      <polygon
   style="fill:#ffffff"
   id="polygon55"
   points="1078,2708 1072,2732 1030,2721 1024,2746 1054,2754 1047,2778 1018,2770 1011,2796 1053,2806 1047,2830 981,2813 1013,2691 "
   class="fil0" />
      <path
   style="fill:#ffffff"
   id="path57"
   d="m 1433,2719 49,-9 c 4,-1 7,1 8,5 l 9,48 c 0,4 -2,7 -6,8 4,-1 7,1 8,5 l 9,48 c 0,4 -2,7 -6,8 l -48,9 c -4,1 -8,-1 -8,-5 l -9,-48 c -1,-4 2,-7 5,-8 -3,1 -7,-1 -7,-5 l -9,-49 c -1,-3 2,-6 5,-7 z m 19,22 19,-4 c 2,0 3,1 3,2 l 4,19 c 0,1 -1,2 -2,2 l -19,4 c -2,0 -3,-1 -3,-2 l -4,-18 c 0,-2 1,-3 2,-3 z m 11,50 19,-4 c 1,0 3,1 3,2 l 3,19 c 0,1 0,2 -2,2 l -19,4 c -1,0 -2,-1 -3,-2 l -3,-18 c 0,-2 1,-3 2,-3 z"
   class="fil0" />
     </g>
    </g>
   </g>
  </g>
 </g>
</svg>