<svg clip-rule="evenodd" fill-rule="evenodd" height="397.359707" image-rendering="optimizeQuality" shape-rendering="geometricPrecision" text-rendering="geometricPrecision" viewBox="0 0 684 1080.66" width="251.661148" xmlns="http://www.w3.org/2000/svg"><path d="m342 247.7h-327.36v510.73c0 90.02 36.83 152.09 96.17 211.43 59.33 59.33 141.17 96.16 231.19 96.16 90.02 0 171.85-36.83 231.19-96.16 59.34-59.34 96.17-121.41 96.17-211.43v-510.73h-327.36z" fill="#fff" fill-rule="nonzero"/><path d="m342 233.06h334.68 7.32v7.32 518.05c0 94.06-38.47 159.79-100.46 221.78-61.98 61.98-147.48 100.45-241.54 100.45-94.06 0-179.56-38.47-241.54-100.45-61.99-61.99-100.46-127.72-100.46-221.78v-518.05-7.32h7.32zm0 14.64h-327.36v510.73c0 90.02 36.83 152.09 96.17 211.43 59.33 59.33 141.17 96.16 231.19 96.16 90.02 0 171.85-36.83 231.19-96.16 59.34-59.34 96.17-121.41 96.17-211.43v-510.73h-327.36z" fill="#00a" fill-rule="nonzero"/><path d="m342 268.58h304.54 6.66v6.66 474.06c0 85.59-35.01 148.9-91.41 205.3-56.4 56.41-134.2 91.42-219.79 91.42-85.59 0-163.39-35.01-219.79-91.42-56.41-56.4-91.42-119.71-91.42-205.3v-474.06-6.66h6.66zm0 13.32h-297.88v467.4c0 81.91 33.51 141.89 87.5 195.89 54 53.99 128.47 87.5 210.38 87.5 81.91 0 156.38-33.51 210.37-87.5 54-54 87.51-113.98 87.51-195.89v-467.4z" fill="#00a" fill-rule="nonzero"/><path d="m140.34 414.7c1.02 108.62 29.16 158.46 143.08 169.61-27.44-90.07-24.76-173.25 56.38-238.51v-28.25c-6.73-1.01-11.88-6.82-11.88-13.82 0-7.73 6.26-13.99 13.98-13.99s13.98 6.26 13.98 13.99c0 7-5.16 12.81-11.88 13.82v28.09c81.33 65.28 84.04 148.53 56.58 238.67 113.92-11.15 142.06-60.99 143.07-169.61 36.79 42.43 119.21 155.78-36.54 252.87 36.57 10.09 71.76 2.46 120.21-54.02-1.23 53.98-16.15 117.01-138.1 149.47l30.99 37.41c-124.22-51.97-120.72-6.87-178.21-2.64-57.49-4.23-53.99-49.33-178.21 2.64l30.99-37.41c-121.95-32.46-136.88-95.49-138.1-149.47 48.45 56.48 83.64 64.11 120.21 54.02-155.75-97.09-73.34-210.44-36.55-252.87zm373.43-19.54c32.22 46.3-6.88 123.38-47.73 151.81 44.2-47.64 55.06-112.97 33.58-141.61-11.4-14.37 6.36-20.98 14.15-10.2zm-343.54 0c-32.23 46.3 6.88 123.38 47.73 151.81-44.2-47.64-55.06-112.97-33.58-141.61 11.4-14.37-6.36-20.98-14.15-10.2zm56.95-24.3c-41.41 32.45-22.69 106.18 9.18 138.98-28.62-46.76-25.32-101.94-2.97-121.94 18.51-16.54 4.11-24.73-6.21-17.04zm229.64 0c41.4 32.45 22.69 106.18-9.18 138.98 28.62-46.76 25.32-101.94 2.96-121.94-18.5-16.54-4.11-24.73 6.22-17.04z" fill="#00a"/><path d="m344 355.51c11.39 1.2 20.34 10.9 20.34 22.59v.48h3.04v5.46h-3.04v5.32h3.04v5.47h-3.04v263.9h6.26v12.05h-6.26v62.09h-45.42v-62.09h-6.28v-12.05h6.28v-263.9h-2.94v-5.47h2.94v-5.32h-2.94v-5.46h2.94v-.48c0-11.87 9.24-21.69 20.88-22.63v23.11h4.2zm20.34 380.66v9.26c-15.14 0-30.28 0-45.42 0v-9.26zm-36.49-77.44h4.2v-263.9h-4.2zm11.95 0h4.2v-263.9h-4.2zm11.42 0h4.2v-263.9h-4.2zm-11.42-274.69v5.32h4.2v-5.32zm-11.95 5.32h4.2v-5.32h-4.2zm23.37 0h4.2v-5.32h-4.2zm-23.37-10.78h4.2v-4.05h-4.2zm23.37 0h4.2v-4.05h-4.2z" fill="#fff"/><path d="m312.24 736.17v9.26c-12.85 0-25.69 0-38.53 0v-9.26zm59.77 0v9.26h38.53v-9.26zm46.24 0v9.26h38.52v-9.26zm-99.33-58.56c-16.34 13.55-14.93 38.16-28.28 54.5 23.75 2.53 24.82-7.87 28.28-22.42zm-23.96-9.77c-51.42 1.68-40.86 41.2-59.69 64.27 44.54 4.74 9.31-35.99 59.69-64.27zm17.68.84c-40.63 6.06-32.62 41.91-50.19 63.43 43.02 4.58 11.63-33.26 54.84-61.33h-4.65zm76.65-.84c51.42 1.68 40.86 41.2 59.69 64.27-44.53 4.74-9.31-35.99-59.69-64.27zm-24.95 8.98c17.39 13.37 15.66 38.62 29.27 55.29-25.83 2.75-24.84-9.79-29.27-26.33zm6.26-8.29c41.77 5.62 33.49 41.88 51.2 63.58-43.02 4.58-11.63-33.26-54.84-61.33h3.64zm-104.6 67.64v9.26c-12.84 0-25.68 0-38.52 0v-9.26z" fill="#fff"/><g fill="#00a"><path d="m177.08 814.97c-2.54-1.23-3.6-4.3-2.36-6.84s4.3-3.6 6.84-2.36c19.08 9.3 34.16 15.27 49.76 17.04 15.51 1.77 31.91-.55 53.79-7.75 14.25-7.07 32.96-10.6 51.47-11.11 20.2-.56 40.33 2.44 54.32 8.31.16.07.31.14.46.22 20.3 9.05 38.21 12.6 55.86 11.33 17.84-1.28 35.61-7.5 55.45-17.96 2.49-1.32 5.59-.36 6.9 2.14 1.32 2.5.36 5.59-2.14 6.9-21.07 11.12-40.11 17.74-59.49 19.13-19.34 1.39-38.82-2.44-60.74-12.21-.08-.03-.17-.07-.26-.1-12.74-5.35-31.31-8.08-50.08-7.55-17.19.48-34.42 3.68-47.3 10.1-.3.17-.62.32-.97.43-23.48 7.77-41.28 10.24-58.39 8.29-17.07-1.94-33.07-8.23-53.12-18.01zm0 21.12c-2.54-1.24-3.6-4.3-2.36-6.85 1.24-2.54 4.3-3.6 6.84-2.36 19.08 9.3 34.16 15.27 49.76 17.05 15.51 1.76 31.91-.55 53.79-7.76 14.25-7.07 32.96-10.59 51.47-11.11 20.2-.56 40.33 2.45 54.32 8.31.16.07.31.14.46.23 20.3 9.04 38.21 12.6 55.86 11.33 17.84-1.29 35.61-7.5 55.45-17.97 2.49-1.31 5.59-.35 6.9 2.14 1.32 2.5.36 5.59-2.14 6.91-21.07 11.11-40.11 17.73-59.49 19.13-19.34 1.39-38.82-2.44-60.74-12.22-.08-.03-.17-.06-.26-.1-12.74-5.34-31.31-8.07-50.08-7.55-17.19.48-34.42 3.69-47.3 10.11-.3.17-.62.31-.97.43-23.48 7.76-41.28 10.23-58.39 8.28-17.07-1.94-33.07-8.23-53.12-18z" fill-rule="nonzero"/><path d="m268.65 930.46 10.58-1.3c.64 4.37 1.91 7.57 3.85 9.62 1.94 2.06 4.55 3.08 7.84 3.08 3.47 0 6.09-.92 7.86-2.74 1.76-1.82 2.65-3.95 2.65-6.39 0-1.58-.38-2.91-1.12-4.02-.73-1.1-2.03-2.05-3.88-2.86-1.26-.55-4.14-1.51-8.64-2.9-5.79-1.79-9.85-3.99-12.19-6.6-3.28-3.66-4.92-8.12-4.92-13.39 0-3.38.77-6.57 2.31-9.52 1.55-2.95 3.78-5.19 6.69-6.73 2.91-1.55 6.41-2.32 10.54-2.32 6.71 0 11.77 1.84 15.16 5.53 3.4 3.69 5.17 8.6 5.35 14.77l-10.88.46c-.46-3.43-1.45-5.88-2.96-7.38s-3.79-2.26-6.81-2.26c-3.13 0-5.58.81-7.34 2.41-1.14 1.04-1.71 2.41-1.71 4.14 0 1.58.54 2.92 1.61 4.03 1.36 1.44 4.68 2.92 9.94 4.47 5.26 1.53 9.15 3.13 11.66 4.77 2.52 1.65 4.5 3.9 5.93 6.75 1.42 2.86 2.13 6.38 2.13 10.57 0 3.8-.85 7.37-2.56 10.69s-4.12 5.79-7.25 7.4c-3.12 1.62-7.02 2.42-11.69 2.42-6.78 0-12-1.93-15.63-5.8-3.64-3.87-5.8-9.51-6.52-16.9zm257.03-21.2-6.45-9.37 9.37-6.45 6.45 9.37zm-105.99 38.43-1.9-11.21 11.22-1.9 1.9 11.22zm-82.38 4.35v-11.37h11.38v11.37zm-106.37-9.48v-11.37h11.38v11.37zm146.75 9.47-3.66-65.73 9.77-.55 3.65 65.74z"/><path d="m172.09 924.51 22.33-62.14 17.3 5.65c6.55 2.14 10.7 3.84 12.47 5.12 2.72 1.94 4.55 4.8 5.5 8.6.94 3.8.52 8.17-1.26 13.12-1.37 3.82-3.12 6.82-5.23 9.04-2.13 2.21-4.37 3.76-6.73 4.65-2.36.88-4.58 1.25-6.64 1.11-2.79-.25-6.61-1.16-11.49-2.75l-7.01-2.3-8.42 23.44zm29.37-48.1-6.36 17.7 5.88 1.92c4.24 1.39 7.18 1.98 8.85 1.8 1.66-.19 3.15-.83 4.46-1.97 1.31-1.13 2.29-2.6 2.96-4.45.81-2.27.91-4.32.31-6.17-.61-1.85-1.71-3.24-3.33-4.19-1.18-.7-3.7-1.68-7.58-2.95z"/><path d="m450.89 920.62 9.58-4.89c2.21 3.87 4.6 6.41 7.19 7.66 2.6 1.24 5.46 1.28 8.59.14 3.3-1.21 5.47-2.97 6.48-5.29s1.07-4.62.18-6.9c-.58-1.47-1.42-2.58-2.53-3.36-1.1-.77-2.69-1.22-4.75-1.32-1.4-.08-4.49.02-9.28.29-6.16.34-10.83-.3-14.01-1.92-4.47-2.28-7.66-5.88-9.59-10.81-1.24-3.16-1.67-6.4-1.28-9.69.39-3.3 1.69-6.17 3.9-8.62 2.2-2.46 5.25-4.4 9.18-5.84 6.38-2.33 11.88-2.37 16.45-.1 4.59 2.26 8.07 6.24 10.5 11.93l-10.18 4.22c-1.7-3.04-3.54-4.99-5.53-5.87-1.98-.87-4.43-.79-7.3.27-2.98 1.08-5.02 2.69-6.1 4.8-.71 1.36-.75 2.85-.12 4.47.58 1.47 1.58 2.54 3.01 3.2 1.82.87 5.52 1.1 11.09.72 5.57-.41 9.86-.26 12.85.4 3.01.66 5.71 2.07 8.11 4.24 2.4 2.18 4.37 5.22 5.9 9.13 1.39 3.56 1.89 7.19 1.47 10.88-.41 3.71-1.8 6.85-4.19 9.44-2.38 2.61-5.8 4.71-10.23 6.34-6.46 2.36-12.13 2.37-17.01.01-4.88-2.34-9-6.86-12.38-13.53z"/></g><path d="m342 0 24.91 62.15 66.72 4.52-51.33 42.92 16.33 64.94-56.63-35.61-56.63 35.61 16.33-64.93-51.33-42.93 66.72-4.52z" fill="#fff000"/><path d="m342 0 24.91 62.15 66.72 4.52-51.33 42.92 16.33 64.94-56.63-35.61-56.63 35.61 16.33-64.93-51.33-42.93 66.72-4.52 24.91-62.15zm21.8 63.4-21.8-54.4-22.58 56.36-60.5 4.09 46.54 38.92-14.81 58.89 51.35-32.3 51.35 32.29-14.81-58.88 46.54-38.92-60.5-4.09z"/></svg>