<?xml version="1.0" encoding="UTF-8" standalone="no"?>
<svg
   xmlns:dc="http://purl.org/dc/elements/1.1/"
   xmlns:cc="http://creativecommons.org/ns#"
   xmlns:rdf="http://www.w3.org/1999/02/22-rdf-syntax-ns#"
   xmlns:svg="http://www.w3.org/2000/svg"
   xmlns="http://www.w3.org/2000/svg"
   xmlns:sodipodi="http://sodipodi.sourceforge.net/DTD/sodipodi-0.dtd"
   xmlns:inkscape="http://www.inkscape.org/namespaces/inkscape"
   version="1.1"
   width="161.30354"
   height="252"
   id="svg187"
   viewBox="0 0 161.30354 252"
   sodipodi:docname="sriwijaya-fc.svg"
   inkscape:version="0.92.4 (5da689c313, 2019-01-14)">
  <metadata
     id="metadata193">
    <rdf:RDF>
      <cc:Work
         rdf:about="">
        <dc:format>image/svg+xml</dc:format>
        <dc:type
           rdf:resource="http://purl.org/dc/dcmitype/StillImage" />
        <dc:title></dc:title>
      </cc:Work>
    </rdf:RDF>
  </metadata>
  <defs
     id="defs191">
    <clipPath
       id="clipPath20"
       clipPathUnits="userSpaceOnUse">
      <path
         inkscape:connector-curvature="0"
         id="path18"
         d="M 0,680 V 0 h 545.895 v 680 z" />
    </clipPath>
    <clipPath
       id="clipPath32"
       clipPathUnits="userSpaceOnUse">
      <path
         inkscape:connector-curvature="0"
         id="path30"
         d="M 539.711,340 C 539.711,192.668 420.277,73.2305 272.949,73.2305 125.613,73.2305 6.17578,192.668 6.17578,340 c 0,147.328 119.43722,266.77 266.77322,266.77 147.328,0 266.762,-119.442 266.762,-266.77 z" />
    </clipPath>
    <clipPath
       id="clipPath50"
       clipPathUnits="userSpaceOnUse">
      <path
         inkscape:connector-curvature="0"
         id="path48"
         d="M 0,680 V 0 h 545.895 v 680 z" />
    </clipPath>
    <clipPath
       id="clipPath136"
       clipPathUnits="userSpaceOnUse">
      <path
         inkscape:connector-curvature="0"
         id="path134"
         d="m 323.023,35.3828 c -2.207,8.0235 -17.121,12.8399 -29.628,24.9375 -11.36,10.957 -23.196,24.2578 -16.575,35.7344 6.633,11.4723 24.075,7.8713 39.239,3.5351 16.73,-4.7929 28.359,-15.3046 36.418,-13.1953 2.214,0.5782 6.687,4.2891 7.031,6.8868 0.097,1.6601 0.144,3.3281 0.144,5.0195 0,33.8282 -19.375,63.1172 -47.625,77.4142 -2.343,1.133 -7.98,-0.93 -9.629,-2.602 -5.851,-5.918 -2.558,-21.238 -6.777,-38.125 -3.828,-15.3 -9.426,-32.215 -22.672,-32.215 -13.246,0 -18.847,16.915 -22.676,32.215 -4.214,16.887 -0.925,32.207 -6.777,38.125 -1.648,1.684 -7.289,3.742 -9.629,2.602 -28.254,-14.297 -47.629,-43.598 -47.629,-77.4142 0,-1.6914 0.055,-3.3594 0.153,-5.0078 0.343,-2.6094 4.804,-6.3203 7.031,-6.8985 8.058,-2.1093 19.68,8.4024 36.414,13.1953 15.168,4.3482 32.605,7.9372 39.23,-3.5351 6.633,-11.4766 -5.214,-24.7774 -16.562,-35.7344 -12.516,-12.0976 -27.426,-16.914 -29.629,-24.9375 -0.613,-2.2383 0.387,-8.0273 2.496,-9.5703 13.656,-8.9883 30.004,-14.2187 47.578,-14.2187 17.574,0 33.922,5.2304 47.582,14.2187 2.102,1.5508 3.098,7.332 2.492,9.5703 z M 243.137,179.746 c 11.683,-4.746 8.394,-21.633 11.582,-35.183 1.957,-8.34 8.586,-17.637 18.23,-17.637 9.633,0 16.266,9.297 18.227,17.637 3.195,13.55 -0.098,30.437 11.582,35.183 -9.297,3.399 -19.336,5.254 -29.809,5.254 -10.476,0 -20.515,-1.855 -29.812,-5.254 z M 217.32,31.7969 c -1.695,12.4609 14.539,18.0586 24.676,27.5781 6.242,5.8672 10.977,16.2695 6.156,24.6094 -4.816,8.3515 -16.183,9.4453 -24.386,6.9609 -13.328,-4.0117 -26.293,-15.2812 -36.243,-7.5664 3.575,-20.5976 14.415,-38.6992 29.797,-51.582 z m 141.043,51.582 c -3.562,-20.5976 -14.414,-38.6992 -29.785,-51.582 1.692,12.4609 -14.539,18.0586 -24.676,27.5781 -6.25,5.8672 -10.976,16.2695 -6.164,24.6094 4.817,8.3515 16.184,9.4453 24.395,6.9609 13.32,-4.0117 26.289,-15.2812 36.23,-7.5664 z" />
    </clipPath>
    <defs
       id="defs11">
      <radialGradient
         gradientUnits="userSpaceOnUse"
         fy="259.80011"
         fx="332.37442"
         gradientTransform="scale(0.99999723,1.0000028)"
         r="559.78656"
         cy="259.80011"
         cx="332.37442"
         id="grad1">
        <stop
           id="stop6"
           stop-opacity="1.0000"
           stop-color="#ffffff"
           offset="0%" />
        <stop
           id="stop8"
           stop-opacity="1.0000"
           stop-color="#87212b"
           offset="100%" />
      </radialGradient>
    </defs>
    <defs
       id="defs98">
      <radialGradient
         gradientUnits="userSpaceOnUse"
         fy="490.72659"
         fx="309.70081"
         gradientTransform="scale(1.0000124,0.99998763)"
         r="181.94154"
         cy="490.72659"
         cx="309.70081"
         id="grad2">
        <stop
           id="stop93"
           stop-opacity="1.0000"
           stop-color="#ffffff"
           offset="0%" />
        <stop
           id="stop95"
           stop-opacity="1.0000"
           stop-color="#87212b"
           offset="100%" />
      </radialGradient>
    </defs>
    <defs
       id="defs115">
      <radialGradient
         gradientUnits="userSpaceOnUse"
         fy="485.15536"
         fx="496.9978"
         gradientTransform="scale(0.70482283,1.4187963)"
         r="21.664133"
         cy="485.15536"
         cx="496.9978"
         id="grad3">
        <stop
           id="stop110"
           stop-opacity="1.0000"
           stop-color="#ffffff"
           offset="0%" />
        <stop
           id="stop112"
           stop-opacity="1.0000"
           stop-color="#c01020"
           offset="100%" />
      </radialGradient>
    </defs>
    <defs
       id="defs124">
      <radialGradient
         gradientUnits="userSpaceOnUse"
         fy="626.2876"
         fx="431.89075"
         gradientTransform="scale(1.0026703,0.99733678)"
         r="24.266788"
         cy="626.2876"
         cx="431.89075"
         id="grad4">
        <stop
           id="stop119"
           stop-opacity="1.0000"
           stop-color="#ffffff"
           offset="0%" />
        <stop
           id="stop121"
           stop-opacity="1.0000"
           stop-color="#9c1d28"
           offset="100%" />
      </radialGradient>
    </defs>
    <defs
       id="defs133">
      <radialGradient
         gradientUnits="userSpaceOnUse"
         fy="717.02557"
         fx="439.88528"
         gradientTransform="scale(1.1485251,0.87068188)"
         r="25.647053"
         cy="717.02557"
         cx="439.88528"
         id="grad5">
        <stop
           id="stop128"
           stop-opacity="1.0000"
           stop-color="#ffffff"
           offset="0%" />
        <stop
           id="stop130"
           stop-opacity="1.0000"
           stop-color="#87212b"
           offset="100%" />
      </radialGradient>
    </defs>
    <defs
       id="defs142">
      <radialGradient
         gradientUnits="userSpaceOnUse"
         fy="734.30719"
         fx="330.24365"
         gradientTransform="scale(1.1485215,0.8706846)"
         r="47.948689"
         cy="734.30719"
         cx="330.24365"
         id="grad6">
        <stop
           id="stop137"
           stop-opacity="1.0000"
           stop-color="#ffffff"
           offset="0%" />
        <stop
           id="stop139"
           stop-opacity="1.0000"
           stop-color="#bd1120"
           offset="100%" />
      </radialGradient>
    </defs>
    <defs
       id="defs151">
      <radialGradient
         gradientUnits="userSpaceOnUse"
         fy="772.75836"
         fx="143.80882"
         gradientTransform="scale(1.1484928,0.87070635)"
         r="26.761389"
         cy="772.75836"
         cx="143.80882"
         id="grad7">
        <stop
           id="stop146"
           stop-opacity="1.0000"
           stop-color="#ffffff"
           offset="0%" />
        <stop
           id="stop148"
           stop-opacity="1.0000"
           stop-color="#87212b"
           offset="100%" />
      </radialGradient>
    </defs>
    <defs
       id="defs160">
      <radialGradient
         gradientUnits="userSpaceOnUse"
         fy="379.96808"
         fx="334.73965"
         gradientTransform="scale(0.56492186,1.7701563)"
         r="16.454275"
         cy="379.96808"
         cx="334.73965"
         id="grad8">
        <stop
           id="stop155"
           stop-opacity="1.0000"
           stop-color="#ffffff"
           offset="0%" />
        <stop
           id="stop157"
           stop-opacity="1.0000"
           stop-color="#88202b"
           offset="100%" />
      </radialGradient>
    </defs>
    <defs
       id="defs169">
      <radialGradient
         gradientUnits="userSpaceOnUse"
         fy="380.13831"
         fx="554.0354"
         gradientTransform="scale(0.56497109,1.7700021)"
         r="16.455709"
         cy="380.13831"
         cx="554.0354"
         id="grad9">
        <stop
           id="stop164"
           stop-opacity="1.0000"
           stop-color="#ffffff"
           offset="0%" />
        <stop
           id="stop166"
           stop-opacity="1.0000"
           stop-color="#ac1725"
           offset="100%" />
      </radialGradient>
    </defs>
    <defs
       id="defs178">
      <radialGradient
         gradientUnits="userSpaceOnUse"
         fy="872.31024"
         fx="216.9231"
         gradientTransform="scale(1.2964493,0.77133751)"
         r="37.761215"
         cy="872.31024"
         cx="216.9231"
         id="grad10">
        <stop
           id="stop173"
           stop-opacity="1.0000"
           stop-color="#ffffff"
           offset="0%" />
        <stop
           id="stop175"
           stop-opacity="1.0000"
           stop-color="#901f2a"
           offset="100%" />
      </radialGradient>
    </defs>
  </defs>
  <sodipodi:namedview
     pagecolor="#ffffff"
     bordercolor="#666666"
     borderopacity="1"
     objecttolerance="10"
     gridtolerance="10"
     guidetolerance="10"
     inkscape:pageopacity="0"
     inkscape:pageshadow="2"
     inkscape:window-width="1366"
     inkscape:window-height="705"
     id="namedview189"
     showgrid="false"
     fit-margin-top="1"
     fit-margin-right="1"
     fit-margin-bottom="1"
     fit-margin-left="1"
     inkscape:zoom="1.1919192"
     inkscape:cx="398.52405"
     inkscape:cy="171.72188"
     inkscape:window-x="-8"
     inkscape:window-y="-8"
     inkscape:window-maximized="1"
     inkscape:current-layer="svg187" />
  <g
     id="g591"
     transform="matrix(0.27810379,0,0,0.27810379,-2.4892924,37.45439)">
    <g
       id="g525">
      <path
         inkscape:connector-curvature="0"
         id="path108"
         style="fill:#7e1a2c;fill-opacity:1;fill-rule:evenodd"
         d="M 87.3166,657.3542 H 46.5653 c -1.523,0 -2.7558,-1.2319 -2.7558,-2.759 v -12.0454 c 0,-1.5235 1.2328,-2.7558 2.7558,-2.7558 h 27.5365 c 1.523,0 2.7585,1.2323 2.7585,2.7558 v 3.8289 l 15.3794,-8.3795 c -0.8891,-7.7149 -7.4242,-13.698 -15.3794,-13.698 H 43.8095 c -8.5639,0 -15.4918,6.9289 -15.4918,15.4928 v 17.5602 c 0,8.5612 6.9279,15.4914 15.4918,15.4914 h 28.0152 c 2.7833,0 5.0356,2.2519 5.0356,5.0343 v 10.4567 l 15.491,-15.491 v -10.4599 c 0,-2.7823 -2.2501,-5.0315 -5.0347,-5.0315 z" />
      <path
         inkscape:connector-curvature="0"
         id="path117"
         style="fill:#7e1a2c;fill-opacity:1"
         d="m 334.8058,671.3933 c 0,0.8044 -0.6493,1.4523 -1.4488,1.4523 h -14.8728 v 15.491 h 18.2468 c 7.3086,0 13.5644,-6.2607 13.5644,-13.5657 v -50.4697 h -15.4896 z" />
      <path
         inkscape:connector-curvature="0"
         id="path126"
         style="fill:#7e1a2c;fill-opacity:1"
         d="m 481.262,624.3012 v 30.294 c 0,1.5271 -1.2296,2.759 -2.7562,2.759 h -27.5365 c -1.5239,0 -2.7558,-1.2319 -2.7558,-2.759 v -30.294 h -15.4896 v 33.053 c 0,8.5612 6.9284,15.4914 15.4896,15.4914 h 13.7516 c 7.9691,0 14.0422,-12.1228 17.8504,-12.1228 0.8013,0 1.4465,0.6479 1.4465,1.4474 v 9.2231 c 0,0.8044 -0.6452,1.4523 -1.4465,1.4523 h -14.53 c 5.3366,5.3366 8.1626,15.1455 18.2468,15.1455 7.3087,0 13.2221,-5.9152 13.2221,-13.2202 V 639.794 c 0,-10.846 -4.6469,-15.4928 -15.4924,-15.4928 z" />
      <path
         inkscape:connector-curvature="0"
         id="path135"
         style="fill:#7e1a2c;fill-opacity:1"
         d="m 553.7633,624.3012 h -33.0499 c -8.5639,0 -15.4941,6.9289 -15.4941,15.4928 v 17.5602 c 0,8.5612 6.9302,15.4914 15.4941,15.4914 h 13.7475 c 10.6687,0 15.4942,-10.6754 19.3024,-10.6754 3.4194,0 10.8257,8.6062 13.2346,8.6062 1.2445,0 2.2568,-1.006 2.2568,-2.2573 V 639.794 c 0,-8.5639 -6.9289,-15.4928 -15.4914,-15.4928 z m 0,30.294 v 0 c 0,1.5271 -1.2324,2.759 -2.7545,2.759 h -27.5396 c -1.5234,0 -2.7558,-1.2319 -2.7558,-2.759 v -12.0454 c 0,-1.5235 1.2324,-2.7558 2.7558,-2.7558 h 27.5396 c 1.5221,0 2.7545,1.2323 2.7545,2.7558 z" />
      <path
         inkscape:connector-curvature="0"
         id="path144"
         style="fill:#7e1a2c;fill-opacity:1"
         d="m 407.9837,624.3012 h -33.0516 c -8.5608,0 -15.491,6.9289 -15.491,15.4928 v 17.5602 c 0,8.5612 6.9302,15.4914 15.491,15.4914 h 13.7502 c 10.6691,0 15.4959,-10.6754 19.3014,-10.6754 3.4208,0 10.8266,8.6062 13.2342,8.6062 1.2508,0 2.2582,-1.006 2.2582,-2.2573 V 639.794 c 0,-8.5639 -6.9285,-15.4928 -15.4924,-15.4928 z m 0,30.294 v 0 c 0,1.5271 -1.2323,2.759 -2.7531,2.759 H 377.691 c -1.5239,0 -2.7589,-1.2319 -2.7589,-2.759 v -12.0454 c 0,-1.5235 1.235,-2.7558 2.7589,-2.7558 h 27.5396 c 1.5208,0 2.7531,1.2323 2.7531,2.7558 z" />
      <path
         inkscape:connector-curvature="0"
         id="path153"
         style="fill:#7e1a2c;fill-opacity:1"
         d="m 149.6734,624.3012 h -33.0499 c -8.5626,0 -15.4919,6.9289 -15.4919,15.4928 v 33.0516 h 15.4919 v -27.4545 c 0,-3.0937 2.5025,-5.5971 5.5957,-5.5971 h 24.6983 c 1.5226,0 2.7559,1.2323 2.7559,2.7558 v 5.6344 l 15.49,-8.3902 c 0,-8.5639 -6.9261,-15.4928 -15.49,-15.4928 z" />
      <path
         inkscape:connector-curvature="0"
         id="path162"
         style="fill:#7e1a2c;fill-opacity:1"
         d="m 173.6869,672.8456 h 15.4923 v -48.5444 h -15.4923 z" />
      <path
         inkscape:connector-curvature="0"
         id="path171"
         style="fill:#7e1a2c;fill-opacity:1"
         d="m 297.519,672.8456 h 15.495 v -48.5444 h -15.495 z" />
      <path
         inkscape:connector-curvature="0"
         id="path180"
         style="fill:#7e1a2c;fill-opacity:1"
         d="m 265.7384,654.5952 c 0,1.5271 -1.2319,2.759 -2.7545,2.759 h -12.0477 c -1.523,0 -2.7553,-1.2319 -2.7553,-2.759 v -30.294 h -15.491 v 30.294 c 0,1.5271 -1.2337,2.759 -2.7585,2.759 h -12.0459 c -1.523,0 -2.7545,-1.2319 -2.7545,-2.759 v -30.294 c -8.5639,0 -15.4937,6.9289 -15.4937,15.4928 v 17.5602 c 0,8.5612 6.9298,15.4914 15.4937,15.4914 10.6673,0 12.4243,-13.5194 19.8193,-13.5194 6.6576,0 15.9004,13.5194 26.4643,13.5194 h 16.1829 c 2.0072,0 3.6323,-1.626 3.6323,-3.6349 v -44.9095 h -15.4914 z" />
      <path
         inkscape:connector-curvature="0"
         id="path182"
         style="fill:#af975b;fill-opacity:1;fill-rule:evenodd"
         d="M 310.3153,732.5703 V 720.528 c 0,-1.5239 1.2369,-2.7563 2.759,-2.7563 h 30.8956 l 16.3544,-15.4909 h -50.009 c -8.5607,0 -15.4883,6.9302 -15.4883,15.4909 v 17.5575 c 0,8.564 6.9276,15.4928 15.4883,15.4928 h 34.0856 v -15.4928 h -31.3266 c -1.5221,0 -2.759,-1.2337 -2.759,-2.7589 z" />
      <path
         inkscape:connector-curvature="0"
         id="path184"
         style="fill:#af975b;fill-opacity:1;fill-rule:evenodd"
         d="M 252.7386,732.5703 V 720.528 c 0,-1.5239 1.2324,-2.7563 2.7585,-2.7563 h 22.6197 l 17.1926,-15.4909 h -42.5708 c -8.5621,0 -15.491,6.9302 -15.491,15.4909 v 34.6003 l 15.491,15.491 v -17.041 h 18.5906 l 15.4936,-15.4928 h -31.3257 c -1.5261,0 -2.7585,-1.2337 -2.7585,-2.7589 z" />
      <g
         transform="matrix(7.8699267,0,0,7.8699267,898.42479,-10.142998)"
         id="g230">
        <g
           transform="matrix(0.13333333,0,0,-0.13333333,-112.56497,75.299436)"
           id="g14">
          <g
             id="g16"
             clip-path="url(#clipPath20)">
            <path
               inkscape:connector-curvature="0"
               d="M 545.895,340 C 545.895,152.227 423.695,0 272.949,0 122.203,0 0,152.227 0,340 0,527.777 122.203,680 272.949,680 423.695,680 545.895,527.777 545.895,340"
               style="fill:#af975b;fill-opacity:1;fill-rule:nonzero;stroke:none"
               id="path22" />
            <path
               inkscape:connector-curvature="0"
               d="M 535.563,340 C 535.563,177.703 417.984,46.1328 272.949,46.1328 127.91,46.1328 10.332,177.703 10.332,340 c 0,162.301 117.578,293.867 262.617,293.867 145.035,0 262.614,-131.566 262.614,-293.867"
               style="fill:#ffffff;fill-opacity:1;fill-rule:nonzero;stroke:none"
               id="path24" />
          </g>
        </g>
        <g
           style="fill:#7e1a2c;fill-opacity:1"
           transform="matrix(0.13333333,0,0,-0.13333333,-112.56497,75.299436)"
           id="g26">
          <g
             style="fill:#7e1a2c;fill-opacity:1"
             id="g28"
             clip-path="url(#clipPath32)">
            <path
               inkscape:connector-curvature="0"
               d="M 539.711,340 C 539.711,192.668 420.277,73.2305 272.949,73.2305 125.613,73.2305 6.17578,192.668 6.17578,340 c 0,147.328 119.43722,266.77 266.77322,266.77 147.328,0 266.762,-119.442 266.762,-266.77"
               style="fill:#7e1a2c;fill-opacity:1;fill-rule:nonzero;stroke:none"
               id="path42" />
          </g>
        </g>
        <g
           transform="matrix(0.13333333,0,0,-0.13333333,-112.56497,75.299436)"
           id="g44">
          <g
             id="g46"
             clip-path="url(#clipPath50)">
            <path
               inkscape:connector-curvature="0"
               d="m 33.5664,412.543 c -1.4766,-0.082 -3.7617,-0.742 -4.6758,-4.004 -1.0781,-3.859 1.5703,-5.32 2.8125,-5.672 2.793,-0.781 4.4063,1.289 5.6172,2.903 2.5664,3.445 3.0039,4.043 4.375,5 1.7656,1.265 3.7383,1.093 5.0899,0.718 3.6836,-1.027 7.1757,-4.793 5.4179,-11.097 -0.6562,-2.34 -1.8554,-4.45 -3.75,-5.903 -1.6601,1.035 -2.6992,1.403 -3.1523,1.567 l 0.1289,0.461 c 2.4141,0.433 4.5508,2.089 5.3359,4.886 1.0391,3.719 -0.9804,5.922 -3.2461,6.559 -2.8711,0.801 -4.4961,-0.926 -6.1172,-3.027 -2.8906,-3.664 -3.1992,-4.075 -4.3164,-4.793 -1.3281,-0.926 -3.2539,-0.996 -4.8867,-0.539 -4.5664,1.273 -5.8437,5.601 -4.6758,9.785 0.7735,2.758 2.5079,4.871 3.3125,5.562 0.4493,-0.433 1.6875,-1.469 2.8672,-1.906 l -0.1367,-0.5"
               style="fill:#ffffff;fill-opacity:1;fill-rule:nonzero;stroke:none"
               id="path52" />
            <path
               inkscape:connector-curvature="0"
               d="m 31.7852,422.859 c 0.3867,0.68 0.7578,1.329 1.0039,1.942 0.2929,0.758 0.4492,1.445 0.5703,2.062 4.3711,-2.066 10.875,-4.629 11.5937,-4.906 4.3164,-1.691 6.7617,-2.5 8.9766,-1.785 1.8008,0.555 3.5312,2.445 4.3789,4.601 0.3789,0.957 2,5.696 -2.3516,8.707 -2.1093,1.461 -5.9609,3.02 -6.8203,3.356 -1.3047,0.512 -8.1015,3.023 -10.4648,3.559 0.2773,0.406 0.5312,0.738 0.8398,1.523 0.2969,0.758 0.3281,1.145 0.3867,1.59 2.9454,-1.668 6.793,-3.34 11.8594,-5.328 3.3203,-1.305 6.9531,-2.93 8.4141,-6.153 0.9414,-2.031 1.2773,-4.691 -0.2539,-8.593 -1.0352,-2.637 -3.0664,-5.993 -6.7461,-6.996 -2.2031,-0.598 -4.1563,-0.032 -7.1016,1.128 -9.2109,3.618 -9.8945,3.887 -14.2851,5.293"
               style="fill:#ffffff;fill-opacity:1;fill-rule:nonzero;stroke:none"
               id="path54" />
            <path
               inkscape:connector-curvature="0"
               d="m 59.8828,467.535 c 2.9141,-4.625 5.9141,-9.172 9.0274,-13.656 1.4843,-2.117 2.1289,-2.848 2.9179,-3.781 -0.1172,-0.149 -0.2461,-0.289 -0.3125,-0.418 -0.0703,-0.129 -0.1093,-0.27 -0.1679,-0.45 -1.6368,0.141 -2.6407,0.227 -4.086,0.274 -5.5937,0.129 -11.9453,0.266 -16.8164,0.176 4.4063,-3.43 12.5977,-8.688 15.5156,-10.254 -0.414,-0.442 -0.6328,-0.699 -0.8671,-1.121 -0.3594,-0.645 -0.543,-1.293 -0.6602,-1.649 -1.332,1.157 -13.9492,11.032 -20.6016,15.653 0.1172,0.148 0.2539,0.32 0.3633,0.511 0.086,0.168 0.1992,0.442 0.293,0.68 2.6367,-0.234 18.0351,-0.473 22.4883,-0.234 -6.7813,10.484 -7.5235,11.652 -10.0899,15.539 -1.0898,1.605 -1.3203,1.949 -2.2422,3.168 0.1563,0.211 0.2735,0.351 0.3789,0.547 0.0899,0.16 0.1602,0.371 0.2735,0.644 7.207,-2.996 17.3633,-7.195 23.0117,-9.215 0.2461,-0.094 0.4883,-0.183 0.9766,-0.281 -0.6055,-0.801 -0.8633,-1.117 -1.1836,-1.699 -0.5118,-0.934 -0.6993,-1.504 -0.9024,-2.106 -3.4687,1.86 -16.3945,7.289 -17.3164,7.672"
               style="fill:#ffffff;fill-opacity:1;fill-rule:nonzero;stroke:none"
               id="path56" />
            <path
               inkscape:connector-curvature="0"
               d="m 69.5898,485.176 5.1407,-8.477 4.5859,6.36 z m 6.1954,-10.149 c 0.9414,-1.586 2.7421,-4.695 5.8164,-8.41 -0.3164,-0.316 -0.6524,-0.531 -1.0586,-1.097 -0.4102,-0.571 -0.5547,-1.012 -0.7735,-1.442 -3.8672,6.828 -10.4062,18.266 -14.2461,24.262 0.1993,0.215 0.3907,0.351 0.625,0.68 0.1954,0.265 0.2735,0.437 0.3907,0.722 7.9179,-2.226 27.1757,-6.097 27.3398,-6.129 -0.4609,-0.445 -0.9141,-0.886 -1.4531,-1.633 -0.5625,-0.773 -0.8789,-1.406 -1.1992,-2.035 -4.336,1.543 -7.8086,2.196 -9.9922,2.633 l -5.4492,-7.551"
               style="fill:#ffffff;fill-opacity:1;fill-rule:nonzero;stroke:none"
               id="path58" />
            <path
               inkscape:connector-curvature="0"
               d="m 79.7656,502.813 c -2.4804,-2.954 -4.1172,-5.094 -4.9179,-6.54 -0.2579,0.325 -0.461,0.59 -0.8829,0.954 -0.4492,0.378 -0.746,0.543 -1.0742,0.722 1.6485,1.594 4.711,5.164 6.6016,7.371 2.3476,2.743 4.8828,5.703 6.2461,7.633 0.2031,-0.265 0.4648,-0.586 0.8828,-0.945 0.4141,-0.36 0.7187,-0.52 1.0703,-0.731 -0.9101,-0.718 -2.5859,-2.285 -5.4844,-5.613 1.9024,-1.676 3.836,-3.379 5.7344,-5.012 3.3828,-2.886 7.6719,-6.757 12.1606,-10.062 -0.9575,-0.828 -1.5122,-1.418 -1.7036,-1.645 -0.5468,-0.64 -0.9179,-1.293 -1.0742,-1.597 -2.8789,2.855 -6.8906,6.429 -10.664,9.66 -2.543,2.18 -4.9688,4.207 -6.8946,5.805"
               style="fill:#ffffff;fill-opacity:1;fill-rule:nonzero;stroke:none"
               id="path60" />
            <path
               inkscape:connector-curvature="0"
               d="m 105.453,517.32 c 0.235,-0.34 0.414,-0.625 0.781,-0.992 0.286,-0.281 0.598,-0.445 0.911,-0.703 -1.54,-1.16 -3.18,-2.645 -4.301,-3.762 -0.703,-0.695 -1.438,-1.472 -2.063,-2.152 1.094,-1.148 2.231,-2.344 3.352,-3.465 1.347,-1.359 3.371,-3.285 4.094,-3.961 1.671,1.656 3.781,3.762 6.546,7.133 0.231,-0.34 0.418,-0.625 0.778,-0.988 0.363,-0.364 0.625,-0.524 0.937,-0.735 -1.355,-1.035 -2.582,-2.257 -3.785,-3.449 -2.004,-1.996 -3.957,-4.101 -5.887,-6.176 -1.793,2.11 -3.347,3.938 -9.0035,9.621 -2.5937,2.602 -6.1484,6.075 -8.8477,8.477 1.9766,1.652 3.7774,3.445 5.6016,5.262 1.332,1.328 2.6094,2.648 3.8086,4.101 0.2344,-0.34 0.4688,-0.676 0.8047,-1.015 0.3594,-0.368 0.625,-0.524 0.9333,-0.731 -1.1442,-0.777 -2.2107,-1.527 -4.4841,-3.789 -0.9375,-0.933 -1.4062,-1.398 -2.4726,-2.57 0.9609,-1.071 1.3984,-1.508 2.9335,-3.047 1.6836,-1.691 1.9961,-2.004 3.3907,-3.363 2.0895,2.019 4.1755,4.047 5.9725,6.304"
               style="fill:#ffffff;fill-opacity:1;fill-rule:nonzero;stroke:none"
               id="path62" />
            <path
               inkscape:connector-curvature="0"
               d="m 108.828,532.652 c -0.816,-0.683 -1.34,-1.269 -1.656,-1.632 1.012,-1.313 2.098,-2.614 3.164,-3.875 1.09,-1.293 2.773,-3.243 3.273,-3.832 0.579,0.386 0.86,0.628 1.512,1.222 1.223,1.117 4.969,4.559 1.676,8.469 -2.77,3.297 -5.914,1.375 -7.969,-0.352 z m 24.856,-10.246 c -0.661,-0.414 -1.184,-0.707 -1.805,-1.222 -0.59,-0.5 -1.164,-1.129 -1.883,-1.875 -6.226,1.968 -10.508,2.894 -14.832,3.629 l -0.73,-0.614 c 1.683,-1.996 4.117,-4.949 8.129,-9.265 -0.575,-0.289 -1.27,-0.778 -1.778,-1.207 -0.762,-0.637 -1,-0.985 -1.351,-1.422 -2.653,3.441 -5.411,6.836 -8.868,10.953 -2.203,2.609 -4.746,5.472 -7.48,8.555 1.16,0.785 1.953,1.449 2.543,1.949 0.508,0.422 2.793,2.39 3.242,2.769 3.352,2.821 4.75,3.274 6.317,3.293 1.804,0.024 3.14,-0.82 4.277,-2.172 3.387,-4.023 0.176,-7.925 -1.281,-9.679 2.386,-0.727 14.476,-3.16 15.214,-3.356 l 0.286,-0.336"
               style="fill:#ffffff;fill-opacity:1;fill-rule:nonzero;stroke:none"
               id="path64" />
            <path
               inkscape:connector-curvature="0"
               d="m 130.605,545.348 1.993,-9.707 6.457,4.441 z m 2.426,-11.637 c 0.352,-1.813 0.996,-5.344 2.645,-9.879 -0.406,-0.187 -0.793,-0.277 -1.367,-0.672 -0.579,-0.394 -0.864,-0.765 -1.211,-1.097 -1.344,7.734 -3.657,20.695 -5.254,27.628 0.261,0.145 0.484,0.207 0.816,0.438 0.278,0.184 0.406,0.32 0.61,0.547 6.707,-4.762 23.535,-14.883 23.679,-14.961 -0.582,-0.266 -1.156,-0.527 -1.914,-1.051 -0.785,-0.543 -1.305,-1.031 -1.816,-1.519 -3.559,2.91 -6.617,4.691 -8.52,5.839 l -7.668,-5.273"
               style="fill:#ffffff;fill-opacity:1;fill-rule:nonzero;stroke:none"
               id="path66" />
            <path
               inkscape:connector-curvature="0"
               d="m 164.309,565.305 c -1.063,1.027 -3.094,2.261 -6.106,0.726 -3.574,-1.82 -2.859,-4.758 -2.273,-5.902 1.316,-2.594 3.933,-2.375 5.933,-2.18 4.274,0.446 5.016,0.531 6.649,0.164 2.125,-0.441 3.34,-2.008 3.972,-3.254 1.739,-3.41 1.332,-8.531 -4.5,-11.504 -2.164,-1.105 -4.527,-1.644 -6.879,-1.238 -0.363,1.922 -0.796,2.938 -0.984,3.379 l 0.426,0.223 c 1.953,-1.485 4.625,-1.942 7.207,-0.621 3.441,1.754 3.699,4.73 2.633,6.832 -1.356,2.648 -3.723,2.683 -6.371,2.449 -4.657,-0.348 -5.164,-0.399 -6.45,-0.066 -1.582,0.351 -2.937,1.722 -3.711,3.226 -2.152,4.231 0.168,8.098 4.036,10.066 2.558,1.305 5.289,1.458 6.343,1.336 -0.015,-0.625 0.063,-2.238 0.536,-3.406 l -0.461,-0.23"
               style="fill:#ffffff;fill-opacity:1;fill-rule:nonzero;stroke:none"
               id="path68" />
            <path
               inkscape:connector-curvature="0"
               d="m 186.031,567.988 c 0.086,-0.398 0.145,-0.738 0.34,-1.215 0.156,-0.371 0.383,-0.64 0.57,-0.996 -1.863,-0.496 -3.949,-1.23 -5.414,-1.836 -0.918,-0.378 -1.886,-0.816 -2.726,-1.203 0.574,-1.476 1.172,-3.019 1.769,-4.48 0.731,-1.774 1.864,-4.328 2.278,-5.235 2.175,0.899 4.929,2.036 8.777,4.094 0.086,-0.402 0.145,-0.734 0.34,-1.211 0.199,-0.476 0.375,-0.718 0.586,-1.035 -1.653,-0.437 -3.25,-1.098 -4.817,-1.742 -2.617,-1.078 -5.23,-2.274 -7.808,-3.457 -0.844,2.637 -1.586,4.918 -4.645,12.332 -1.394,3.402 -3.355,7.969 -4.933,11.219 2.465,0.777 4.812,1.75 7.191,2.722 1.734,0.719 3.422,1.457 5.082,2.34 0.09,-0.402 0.176,-0.805 0.359,-1.25 0.2,-0.472 0.375,-0.722 0.583,-1.035 -1.356,-0.281 -2.629,-0.57 -5.59,-1.785 -1.227,-0.504 -1.836,-0.758 -3.27,-1.426 0.477,-1.359 0.719,-1.934 1.543,-3.941 0.91,-2.211 1.078,-2.618 1.856,-4.41 2.699,1.074 5.406,2.148 7.929,3.55"
               style="fill:#ffffff;fill-opacity:1;fill-rule:nonzero;stroke:none"
               id="path70" />
            <path
               inkscape:connector-curvature="0"
               d="m 202.926,560.48 c 1.781,0.575 4.672,1.672 6.191,2.481 0.031,-0.344 0.078,-0.715 0.235,-1.203 0.183,-0.563 0.371,-0.891 0.527,-1.149 -2.297,-0.668 -3.809,-1.004 -7.621,-2.246 -3.078,-1 -3.918,-1.39 -5.778,-2.109 -1.171,4.57 -2.343,8.289 -3.835,12.871 -1.547,4.762 -3.442,9.867 -4,11.355 0.593,0.071 1.082,0.118 1.957,0.403 0.914,0.297 1.543,0.617 2.136,0.922 2.598,-9.055 3.371,-11.434 6.91,-22.317 1.7,0.477 2.399,0.703 3.278,0.992"
               style="fill:#ffffff;fill-opacity:1;fill-rule:nonzero;stroke:none"
               id="path72" />
            <path
               inkscape:connector-curvature="0"
               d="m 215.891,583.285 -1.735,-9.75 7.641,1.746 z m -2.043,-11.707 c -0.336,-1.812 -1.039,-5.332 -1.184,-10.156 -0.441,-0.031 -0.832,0.031 -1.516,-0.121 -0.679,-0.156 -1.082,-0.399 -1.531,-0.578 1.606,7.683 4.231,20.59 5.301,27.621 0.293,0.031 0.527,0.008 0.918,0.097 0.324,0.075 0.496,0.149 0.766,0.289 4.488,-6.894 16.394,-22.5 16.5,-22.632 -0.637,-0.028 -1.266,-0.063 -2.164,-0.27 -0.934,-0.207 -1.586,-0.476 -2.247,-0.734 -2.242,4.011 -4.421,6.793 -5.769,8.558 l -9.074,-2.074"
               style="fill:#ffffff;fill-opacity:1;fill-rule:nonzero;stroke:none"
               id="path74" />
            <path
               inkscape:connector-curvature="0"
               d="m 235.203,589.836 c -3.812,-0.578 -6.453,-1.106 -8.008,-1.668 0.016,0.41 0.039,0.754 -0.039,1.301 -0.082,0.582 -0.199,0.898 -0.324,1.254 2.289,0.101 6.945,0.765 9.828,1.175 3.567,0.508 7.426,1.063 9.727,1.614 -0.024,-0.344 -0.039,-0.754 0.035,-1.301 0.082,-0.547 0.199,-0.863 0.332,-1.25 -1.164,0.055 -3.457,-0.008 -7.832,-0.594 0.32,-2.519 0.648,-5.074 1.004,-7.551 0.625,-4.41 1.297,-10.144 2.48,-15.586 -1.261,0.004 -2.074,-0.074 -2.363,-0.117 -0.832,-0.117 -1.547,-0.367 -1.863,-0.48 -0.282,4.043 -0.93,9.375 -1.625,14.289 -0.477,3.316 -0.953,6.441 -1.352,8.914"
               style="fill:#ffffff;fill-opacity:1;fill-rule:nonzero;stroke:none"
               id="path76" />
            <path
               inkscape:connector-curvature="0"
               d="m 256.91,589.328 -3.32,-9.328 7.82,0.453 z m -3.945,-11.207 c -0.637,-1.738 -1.914,-5.094 -2.848,-9.824 -0.445,0.043 -0.82,0.172 -1.519,0.133 -0.7,-0.047 -1.133,-0.215 -1.602,-0.321 2.848,7.317 7.578,19.61 9.797,26.375 0.297,-0.027 0.516,-0.086 0.922,-0.058 0.332,0.019 0.512,0.066 0.801,0.156 3.285,-7.547 12.453,-24.91 12.531,-25.055 -0.633,0.078 -1.262,0.145 -2.18,0.09 -0.957,-0.051 -1.644,-0.203 -2.336,-0.355 -1.547,4.332 -3.242,7.437 -4.273,9.398 l -9.293,-0.539"
               style="fill:#ffffff;fill-opacity:1;fill-rule:nonzero;stroke:none"
               id="path78" />
            <path
               inkscape:connector-curvature="0"
               d="m 276.41,586.07 c -0.32,-8.898 -0.273,-11.004 -0.234,-16.711 -0.43,0.129 -0.867,0.266 -1.524,0.293 -0.664,0.036 -0.996,-0.062 -1.449,-0.144 0.277,1.824 0.883,8.129 1.07,11.953 0.067,1.469 0.278,7.867 0.34,9.195 l 0.215,4.407 c 0.227,-0.047 0.41,-0.09 0.586,-0.106 0.227,-0.012 0.449,0.016 0.781,0.031 l 1.145,-1.488 c 0.937,-1.184 1.765,-2.227 3.894,-4.68 6.965,-8.121 7.727,-9.047 12.161,-14.011 l 0.066,1.359 c 0.461,9.371 0.625,12.605 0.41,17.953 0.391,-0.133 0.832,-0.258 1.418,-0.293 0.586,-0.023 1.102,0.059 1.59,0.149 -0.879,-5.262 -1.152,-10.594 -1.406,-15.879 -0.145,-2.868 -0.36,-7.278 -0.34,-9.895 -0.293,0.055 -0.481,0.098 -0.695,0.11 -0.184,0.007 -0.333,-0.02 -0.594,-0.047 -1.067,1.457 -6.281,7.863 -8.731,10.379 -0.597,0.617 -1.191,1.273 -1.789,1.925 l -6.797,7.813 -0.117,-2.313"
               style="fill:#ffffff;fill-opacity:1;fill-rule:nonzero;stroke:none"
               id="path80" />
            <path
               inkscape:connector-curvature="0"
               d="m 320.211,588.738 c -0.723,0.145 -1.719,0.262 -2.559,0.313 -0.371,-1.461 -0.714,-3.043 -1.007,-4.559 -0.301,-1.523 -0.575,-3.113 -0.84,-4.679 2.258,-0.543 3.125,-0.68 4.336,-0.653 2.558,0.063 4.316,1.594 4.777,3.942 0.633,3.246 -1.855,5.082 -4.707,5.636 z m -2.57,-10.851 c -0.684,0.133 -1.161,0.187 -2.149,0.304 -0.379,-1.761 -0.789,-3.664 -1.14,-5.464 -0.344,-1.743 -0.657,-3.512 -0.911,-5.227 0.645,-0.16 1.075,-0.281 1.868,-0.437 1.257,-0.247 3.386,-0.661 4.675,-0.239 2.356,0.774 3.204,2.602 3.536,4.293 1.035,5.309 -4.032,6.41 -5.879,6.77 z m 4.648,0.406 c -0.605,-0.031 -0.652,-0.063 -0.672,-0.172 -0.012,-0.109 0.059,-0.125 0.692,-0.316 4.601,-1.387 5.664,-4.742 5.168,-7.344 -0.411,-2.098 -1.946,-4.383 -4.817,-5.285 -1.601,-0.508 -3.875,-0.446 -5.965,-0.035 -0.656,0.129 -3.566,0.773 -4.132,0.882 -0.907,0.176 -1.641,0.282 -3.29,0.493 0.977,3.664 1.348,5.132 2.422,10.691 0.938,4.766 1.785,9.551 2.469,14.359 1.27,-0.394 2.539,-0.605 3.84,-0.859 5.273,-1.031 7.832,-1.566 9.266,-3.039 1.242,-1.297 1.835,-3.063 1.503,-4.793 -0.828,-4.223 -5.234,-4.523 -6.484,-4.582"
               style="fill:#ffffff;fill-opacity:1;fill-rule:nonzero;stroke:none"
               id="path82" />
            <path
               inkscape:connector-curvature="0"
               d="m 346.012,572.793 c -0.188,-0.371 -0.344,-0.668 -0.481,-1.168 -0.105,-0.387 -0.105,-0.734 -0.183,-1.137 -1.758,0.774 -3.86,1.485 -5.371,1.914 -0.957,0.274 -1.993,0.532 -2.891,0.746 -0.469,-1.507 -0.957,-3.089 -1.387,-4.613 -0.519,-1.84 -1.222,-4.547 -1.457,-5.512 2.266,-0.644 5.129,-1.457 9.426,-2.222 -0.176,-0.371 -0.344,-0.668 -0.48,-1.16 -0.145,-0.496 -0.157,-0.801 -0.184,-1.172 -1.574,0.672 -3.234,1.144 -4.856,1.609 -2.722,0.777 -5.515,1.453 -8.269,2.125 0.965,2.594 1.805,4.84 3.992,12.555 1.008,3.535 2.297,8.328 3.067,11.855 2.421,-0.914 4.863,-1.613 7.335,-2.316 1.805,-0.512 3.582,-0.981 5.438,-1.317 -0.176,-0.367 -0.359,-0.738 -0.488,-1.199 -0.145,-0.496 -0.157,-0.801 -0.184,-1.176 -1.242,0.625 -2.414,1.188 -5.488,2.063 -1.281,0.363 -1.914,0.547 -3.457,0.906 -0.461,-1.355 -0.637,-1.957 -1.231,-4.047 -0.656,-2.3 -0.773,-2.726 -1.269,-4.609 2.781,-0.832 5.566,-1.66 8.418,-2.125"
               style="fill:#ffffff;fill-opacity:1;fill-rule:nonzero;stroke:none"
               id="path84" />
            <path
               inkscape:connector-curvature="0"
               d="m 361.02,577.328 c -0.997,0.375 -1.758,0.547 -2.235,0.645 -0.656,-1.52 -1.25,-3.102 -1.836,-4.649 -0.597,-1.582 -1.484,-4 -1.758,-4.726 0.633,-0.317 0.977,-0.45 1.817,-0.723 1.57,-0.516 6.394,-2.113 8.203,2.672 1.523,4.019 -1.68,5.832 -4.191,6.781 z m 3.175,-26.691 c -0.683,0.375 -1.191,0.687 -1.945,0.972 -0.73,0.278 -1.551,0.469 -2.559,0.735 -1.308,6.394 -2.597,10.582 -4.062,14.719 l -0.887,0.335 c -0.929,-2.441 -2.324,-6.007 -4.133,-11.617 -0.535,0.364 -1.296,0.735 -1.914,0.961 -0.925,0.36 -1.347,0.399 -1.902,0.488 1.719,3.997 3.34,8.063 5.234,13.083 1.211,3.199 2.469,6.816 3.828,10.703 1.25,-0.633 2.208,-0.996 2.93,-1.27 0.625,-0.234 3.457,-1.269 4.004,-1.48 4.102,-1.551 5.176,-2.547 5.957,-3.907 0.899,-1.562 0.809,-3.136 0.195,-4.789 -1.867,-4.922 -6.836,-4.023 -9.082,-3.601 0.536,-2.449 4.305,-14.184 4.493,-14.918 l -0.157,-0.414"
               style="fill:#ffffff;fill-opacity:1;fill-rule:nonzero;stroke:none"
               id="path86" />
            <path
               inkscape:connector-curvature="0"
               d="m 386.773,562.73 c 0.184,1.465 -0.058,3.833 -3.105,5.313 -3.613,1.746 -5.52,-0.598 -6.086,-1.754 -1.269,-2.617 0.488,-4.57 1.848,-6.047 2.937,-3.14 3.457,-3.683 4.14,-5.203 0.938,-1.957 0.41,-3.879 -0.195,-5.133 -1.672,-3.441 -5.996,-6.211 -11.887,-3.351 -2.187,1.058 -4.043,2.617 -5.136,4.738 1.308,1.449 1.855,2.414 2.101,2.828 l 0.43,-0.211 c 0,-2.457 1.238,-4.855 3.855,-6.129 3.477,-1.676 6.008,-0.086 7.032,2.028 1.3,2.687 -0.098,4.589 -1.883,6.562 -3.086,3.5 -3.438,3.871 -3.946,5.098 -0.675,1.476 -0.41,3.386 0.332,4.91 2.079,4.266 6.563,4.754 10.457,2.859 2.59,-1.254 4.356,-3.34 4.903,-4.254 -0.516,-0.371 -1.746,-1.398 -2.391,-2.48 l -0.469,0.226"
               style="fill:#ffffff;fill-opacity:1;fill-rule:nonzero;stroke:none"
               id="path88" />
            <path
               inkscape:connector-curvature="0"
               d="m 401.273,554.402 -8.027,-5.797 6.699,-4.062 z m -9.609,-6.992 c -1.504,-1.066 -4.461,-3.101 -7.918,-6.472 -0.332,0.292 -0.578,0.609 -1.172,0.972 -0.605,0.36 -1.054,0.461 -1.504,0.649 6.504,4.41 17.371,11.843 23.035,16.156 0.227,-0.184 0.383,-0.36 0.723,-0.57 0.285,-0.172 0.469,-0.235 0.754,-0.329 -1.582,-8.074 -3.887,-27.578 -3.898,-27.738 -0.477,0.414 -0.957,0.836 -1.746,1.313 -0.813,0.496 -1.465,0.757 -2.129,1.031 1.191,4.441 1.55,7.961 1.816,10.168 l -7.961,4.82"
               style="fill:#ffffff;fill-opacity:1;fill-rule:nonzero;stroke:none"
               id="path90" />
            <path
               inkscape:connector-curvature="0"
               d="m 419.703,545.66 c -3.144,2.235 -5.402,3.695 -6.906,4.375 0.293,0.281 0.558,0.508 0.879,0.957 0.344,0.473 0.48,0.789 0.637,1.125 1.707,-1.515 5.527,-4.281 7.878,-5.988 2.911,-2.113 6.067,-4.41 8.106,-5.609 -0.254,-0.231 -0.555,-0.516 -0.879,-0.957 -0.32,-0.446 -0.457,-0.762 -0.633,-1.129 -0.801,0.847 -2.492,2.394 -6.035,5.019 -1.523,-2.031 -3.066,-4.098 -4.531,-6.117 -2.629,-3.602 -6.133,-8.191 -9.074,-12.922 -0.899,0.883 -1.532,1.387 -1.766,1.563 -0.684,0.492 -1.379,0.804 -1.68,0.941 2.617,3.102 5.86,7.383 8.778,11.402 1.964,2.711 3.789,5.293 5.226,7.34"
               style="fill:#ffffff;fill-opacity:1;fill-rule:nonzero;stroke:none"
               id="path92" />
            <path
               inkscape:connector-curvature="0"
               d="m 434.254,537.406 c 0.496,-0.593 0.976,-1.168 1.473,-1.605 0.597,-0.535 1.191,-0.922 1.738,-1.258 -3.457,-3.371 -8.113,-8.586 -8.621,-9.168 -3.086,-3.449 -4.688,-5.473 -4.797,-7.797 -0.106,-1.879 1.074,-4.16 2.805,-5.699 0.761,-0.688 4.636,-3.852 8.972,-0.82 2.102,1.476 4.903,4.55 5.52,5.234 0.926,1.043 5.644,6.551 6.953,8.578 0.293,-0.398 0.516,-0.75 1.141,-1.312 0.605,-0.539 0.957,-0.704 1.359,-0.918 -2.59,-2.176 -5.488,-5.203 -9.113,-9.266 -2.371,-2.668 -5.157,-5.504 -8.68,-5.758 -2.227,-0.176 -4.844,0.43 -7.969,3.219 -2.121,1.883 -4.562,4.949 -4.219,8.742 0.204,2.281 1.407,3.914 3.516,6.274 6.59,7.378 7.078,7.925 9.922,11.554"
               style="fill:#ffffff;fill-opacity:1;fill-rule:nonzero;stroke:none"
               id="path94" />
            <path
               inkscape:connector-curvature="0"
               d="m 464.469,504.766 c -2.531,2.922 -4.375,4.875 -5.676,5.894 0.352,0.203 0.656,0.36 1.074,0.723 0.449,0.375 0.656,0.648 0.891,0.941 1.308,-1.879 4.355,-5.469 6.23,-7.683 2.344,-2.75 4.864,-5.723 6.551,-7.375 -0.301,-0.157 -0.652,-0.368 -1.082,-0.723 -0.41,-0.352 -0.617,-0.625 -0.879,-0.941 -0.566,1.007 -1.855,2.914 -4.68,6.3 -1.96,-1.609 -3.945,-3.25 -5.847,-4.867 -3.399,-2.879 -7.891,-6.508 -11.875,-10.41 -0.664,1.07 -1.153,1.715 -1.348,1.934 -0.547,0.652 -1.144,1.113 -1.406,1.32 3.269,2.391 7.441,5.785 11.23,9 2.547,2.168 4.942,4.242 6.817,5.887"
               style="fill:#ffffff;fill-opacity:1;fill-rule:nonzero;stroke:none"
               id="path96" />
            <path
               inkscape:connector-curvature="0"
               d="m 474.723,477.094 c -0.371,-0.176 -0.684,-0.309 -1.106,-0.61 -0.32,-0.234 -0.527,-0.515 -0.84,-0.785 -0.906,1.703 -2.097,3.559 -3.027,4.836 -0.574,0.813 -1.238,1.656 -1.805,2.379 -1.3,-0.894 -2.668,-1.828 -3.945,-2.754 -1.555,-1.113 -3.781,-2.805 -4.57,-3.418 1.375,-1.906 3.113,-4.332 6.004,-7.594 -0.36,-0.171 -0.672,-0.304 -1.094,-0.609 -0.418,-0.301 -0.613,-0.531 -0.867,-0.805 -0.813,1.5 -1.817,2.907 -2.813,4.278 -1.652,2.297 -3.418,4.558 -5.156,6.793 2.363,1.433 4.414,2.683 10.926,7.367 2.98,2.144 6.965,5.105 9.765,7.391 1.328,-2.219 2.813,-4.282 4.309,-6.372 1.094,-1.515 2.195,-2.992 3.445,-4.41 -0.371,-0.176 -0.742,-0.347 -1.133,-0.629 -0.418,-0.3 -0.613,-0.531 -0.867,-0.804 -0.586,1.25 -1.164,2.425 -3.027,5.023 -0.774,1.074 -1.164,1.613 -2.141,2.852 -1.211,-0.778 -1.718,-1.141 -3.476,-2.407 -1.942,-1.402 -2.305,-1.66 -3.867,-2.828 1.671,-2.379 3.339,-4.758 5.285,-6.894"
               style="fill:#ffffff;fill-opacity:1;fill-rule:nonzero;stroke:none"
               id="path98" />
            <path
               inkscape:connector-curvature="0"
               d="m 493.336,456.531 c 0.762,1.465 2.344,4.602 -0.371,9.274 -2.695,4.644 -8.301,6.875 -14.883,3.047 -6.672,-3.879 -7.5,-10.278 -4.785,-14.95 0.262,-0.449 1.719,-2.961 4.023,-4.132 5.078,2.875 5.664,3.21 7.598,4.632 0.184,-0.609 0.398,-1.121 0.898,-1.98 0.469,-0.797 0.801,-1.152 1.172,-1.578 -1.972,-0.934 -4.004,-1.903 -6.418,-3.309 -0.761,-0.441 -1.621,-0.937 -2.265,-1.441 -2.735,2.363 -4.871,4.273 -6.922,7.797 -4.102,7.054 -2.305,14.578 4.531,18.55 6.004,3.497 13.484,2.649 18.379,-5.781 1.738,-2.984 2.969,-6.777 3.113,-9.668 -1.894,-0.172 -3.191,-0.582 -3.867,-0.804 l -0.203,0.343"
               style="fill:#ffffff;fill-opacity:1;fill-rule:nonzero;stroke:none"
               id="path100-6" />
            <path
               inkscape:connector-curvature="0"
               d="m 502.445,451.113 c 0.215,-0.758 0.403,-1.48 0.664,-2.086 0.325,-0.742 0.704,-1.336 1.055,-1.871 -4.559,-1.609 -10.976,-4.379 -11.68,-4.691 -4.257,-1.84 -6.562,-2.992 -7.625,-5.063 -0.89,-1.66 -0.781,-4.222 0.137,-6.347 0.41,-0.95 2.598,-5.45 7.813,-4.524 2.527,0.449 6.355,2.074 7.195,2.438 1.289,0.551 7.871,3.566 9.934,4.859 0.078,-0.484 0.144,-0.902 0.476,-1.68 0.324,-0.738 0.566,-1.035 0.852,-1.394 -3.274,-0.895 -7.168,-2.426 -12.168,-4.586 -3.282,-1.418 -7.004,-2.828 -10.305,-1.574 -2.109,0.777 -4.219,2.426 -5.879,6.281 -1.133,2.598 -2.059,6.406 -0.156,9.711 1.144,1.977 2.93,2.949 5.84,4.203 9.074,3.934 9.757,4.227 13.847,6.324"
               style="fill:#ffffff;fill-opacity:1;fill-rule:nonzero;stroke:none"
               id="path102-5" />
            <path
               inkscape:connector-curvature="0"
               d="m 497.426,414.211 c -3.203,-0.953 -4.09,-1.215 -6.707,-2.07 -0.059,0.593 -0.117,1.187 -0.352,1.964 -0.246,0.813 -0.527,1.379 -0.812,1.95 6.379,1.511 8.39,1.992 13,3.363 2.722,0.809 3.593,1.105 11.445,3.746 0.02,-0.605 0.086,-1.086 0.371,-2.035 0.281,-0.953 0.488,-1.395 0.801,-1.91 -1.086,-0.242 -6.367,-1.555 -10.332,-2.809 0.613,-2.347 1.258,-4.73 1.933,-7.055 0.821,-2.75 1.348,-4.367 2.051,-6.496 4.813,1.36 5.34,1.551 10.242,3.246 0.032,-0.613 0.11,-1.125 0.383,-2.042 0.262,-0.883 0.489,-1.391 0.789,-1.915 -5.976,-1.429 -11.785,-3.078 -17.039,-4.644 -2.851,-0.848 -4.004,-1.231 -7.402,-2.43 -0.098,0.696 -0.156,1.297 -0.332,1.899 -0.176,0.562 -0.41,1.101 -0.813,1.941 2.043,0.496 5.852,1.477 6.731,1.734 l 5.301,1.575 c -0.606,2.39 -0.868,3.273 -1.922,6.8 -1.008,3.387 -1.211,4.09 -2.071,6.754 l -5.265,-1.566"
               style="fill:#ffffff;fill-opacity:1;fill-rule:nonzero;stroke:none"
               id="path104" />
            <path
               inkscape:connector-curvature="0"
               d="m 333.219,440.563 c 3.906,0 14.375,11.593 14.375,11.593 l -31.399,2.903 c 0,0 13.614,-14.496 17.024,-14.496"
               style="fill:#af975b;fill-opacity:1;fill-rule:nonzero;stroke:none"
               id="path106" />
            <path
               inkscape:connector-curvature="0"
               d="m 197.418,242.844 14.297,-1.914 v 12.644 l -14.297,2.813 v -13.543"
               style="fill:#af975b;fill-opacity:1;fill-rule:nonzero;stroke:none"
               id="path108-8" />
            <path
               inkscape:connector-curvature="0"
               d="m 197.418,198.027 c 4.617,0.496 9.383,0.989 14.297,1.453 v 33.481 l -14.297,1.91 v -36.844"
               style="fill:#af975b;fill-opacity:1;fill-rule:nonzero;stroke:none"
               id="path110" />
            <path
               inkscape:connector-curvature="0"
               d="m 272.949,190.359 c -50.984,0 -86.148,-32.332 -96.039,-42.617 28.903,-14.461 61.52,-22.613 96.039,-22.613 34.516,0 67.125,8.152 96.031,22.625 -9.914,10.281 -45.07,42.605 -96.031,42.605"
               style="fill:#af975b;fill-opacity:1;fill-rule:nonzero;stroke:none"
               id="path112" />
            <path
               inkscape:connector-curvature="0"
               d="m 182.465,297.043 2.676,-0.363 v 10.039 l -5.762,2.058 v 2.27 l 15.238,3.504 36.035,-11.543 v -2.266 l -4.73,-0.41 v -9.219 l 2.297,-0.312 1.758,-89.746 c 22.496,1.738 47.273,2.89 73.308,2.89 2.727,0 5.442,-0.007 8.125,-0.05 l 5.059,146.418 -7.41,3.16 v 1.644 l 20.867,5.629 37.344,-20.043 v -2.742 h -3.016 l -0.547,-0.969 h -3.156 l 0.469,-1.23 2.628,-134.246 c 30.067,-2.317 54.434,-5.723 66.805,-7.649 35.586,38.34 57.363,89.688 57.363,146.133 0,118.668 -96.199,214.867 -214.867,214.867 -25.961,0 -50.844,-4.601 -73.883,-13.035 -19.796,-7.254 -35.824,-24.836 -35.824,-47.355 0,-21.25 14.602,-35.879 36.113,-38.442 0,0 -21.832,8.399 -21.832,30.07 0,15.239 9.473,23.891 9.473,23.891 10.707,-49.019 124.484,-22.484 149.141,-39.558 5.937,-4.11 10.734,-13.219 13.976,-16.461 5.145,-5.149 14.981,-5.122 25.137,-5.43 16.258,-0.496 33.359,-4.871 33.359,-26.699 0,-17.762 -9.484,-32.129 -9.484,-32.129 0,0 -4.531,20.73 -15.652,20.73 -90.625,0 -221.325,-76.886 -294.8519,-180.937 9.3828,-15.617 20.6919,-29.942 33.5979,-42.649 9.008,1.782 29.445,5.539 57.472,9.075 l 2.774,101.105"
               style="fill:#af975b;fill-opacity:1;fill-rule:nonzero;stroke:none"
               id="path114" />
            <path
               inkscape:connector-curvature="0"
               d="m 138.813,172.141 c 7.578,-6.067 15.578,-11.633 23.953,-16.645 8.761,7.109 28.5,21.606 54.797,31.66 -40.223,-4.539 -70.2,-12.566 -78.75,-15.015"
               style="fill:#af975b;fill-opacity:1;fill-rule:nonzero;stroke:none"
               id="path116" />
            <path
               inkscape:connector-curvature="0"
               d="m 383.129,155.508 c 9.355,5.597 18.262,11.887 26.633,18.801 -16.211,3.562 -46.731,9.586 -82.239,13.14 26.692,-10.054 46.739,-24.761 55.606,-31.941"
               style="fill:#af975b;fill-opacity:1;fill-rule:nonzero;stroke:none"
               id="path118" />
            <path
               inkscape:connector-curvature="0"
               d="m 331.441,269.121 16.485,-5.156 v 17.258 l -16.485,6.433 v -18.535"
               style="fill:#af975b;fill-opacity:1;fill-rule:nonzero;stroke:none"
               id="path120" />
            <path
               inkscape:connector-curvature="0"
               d="m 331.441,308.523 16.485,-5.664 v 10.305 l -16.485,8.242 v -12.883"
               style="fill:#af975b;fill-opacity:1;fill-rule:nonzero;stroke:none"
               id="path122" />
            <path
               inkscape:connector-curvature="0"
               d="m 197.418,272.18 14.297,-3.125 v 6.773 l -14.297,3.117 v -6.765"
               style="fill:#af975b;fill-opacity:1;fill-rule:nonzero;stroke:none"
               id="path124" />
            <path
               inkscape:connector-curvature="0"
               d="m 331.441,203.391 c 5.594,-0.215 11.102,-0.493 16.485,-0.801 v 55.965 l -16.485,4.121 v -59.285"
               style="fill:#af975b;fill-opacity:1;fill-rule:nonzero;stroke:none"
               id="path126-8" />
            <path
               inkscape:connector-curvature="0"
               d="m 272.949,190.359 c -50.844,0 -92.058,-41.218 -92.058,-92.0582 0,-50.8516 41.214,-92.06252 92.058,-92.06252 50.844,0 92.055,41.21092 92.055,92.06252 0,50.8402 -41.211,92.0582 -92.055,92.0582"
               style="fill:#af975b;fill-opacity:1;fill-rule:nonzero;stroke:none"
               id="path128" />
          </g>
        </g>
        <g
           style="fill:#7e1a2c;fill-opacity:1"
           transform="matrix(0.13333333,0,0,-0.13333333,-112.56497,75.299436)"
           id="g130">
          <g
             style="fill:#7e1a2c;fill-opacity:1"
             id="g132"
             clip-path="url(#clipPath136)">
            <path
               inkscape:connector-curvature="0"
               d="m 323.023,35.3828 c -2.207,8.0235 -17.121,12.8399 -29.628,24.9375 -11.36,10.957 -23.196,24.2578 -16.575,35.7344 6.633,11.4723 24.075,7.8713 39.239,3.5351 16.73,-4.7929 28.359,-15.3046 36.418,-13.1953 2.214,0.5782 6.687,4.2891 7.031,6.8868 0.097,1.6601 0.144,3.3281 0.144,5.0195 0,33.8282 -19.375,63.1172 -47.625,77.4142 -2.343,1.133 -7.98,-0.93 -9.629,-2.602 -5.851,-5.918 -2.558,-21.238 -6.777,-38.125 -3.828,-15.3 -9.426,-32.215 -22.672,-32.215 -13.246,0 -18.847,16.915 -22.676,32.215 -4.214,16.887 -0.925,32.207 -6.777,38.125 -1.648,1.684 -7.289,3.742 -9.629,2.602 -28.254,-14.297 -47.629,-43.598 -47.629,-77.4142 0,-1.6914 0.055,-3.3594 0.153,-5.0078 0.343,-2.6094 4.804,-6.3203 7.031,-6.8985 8.058,-2.1093 19.68,8.4024 36.414,13.1953 15.168,4.3482 32.605,7.9372 39.23,-3.5351 6.633,-11.4766 -5.214,-24.7774 -16.562,-35.7344 -12.516,-12.0976 -27.426,-16.914 -29.629,-24.9375 -0.613,-2.2383 0.387,-8.0273 2.496,-9.5703 13.656,-8.9883 30.004,-14.2187 47.578,-14.2187 17.574,0 33.922,5.2304 47.582,14.2187 2.102,1.5508 3.098,7.332 2.492,9.5703 z M 243.137,179.746 c 11.683,-4.746 8.394,-21.633 11.582,-35.183 1.957,-8.34 8.586,-17.637 18.23,-17.637 9.633,0 16.266,9.297 18.227,17.637 3.195,13.55 -0.098,30.437 11.582,35.183 -9.297,3.399 -19.336,5.254 -29.809,5.254 -10.476,0 -20.515,-1.855 -29.812,-5.254 z M 217.32,31.7969 c -1.695,12.4609 14.539,18.0586 24.676,27.5781 6.242,5.8672 10.977,16.2695 6.156,24.6094 -4.816,8.3515 -16.183,9.4453 -24.386,6.9609 -13.328,-4.0117 -26.293,-15.2812 -36.243,-7.5664 3.575,-20.5976 14.415,-38.6992 29.797,-51.582 z m 141.043,51.582 c -3.562,-20.5976 -14.414,-38.6992 -29.785,-51.582 1.692,12.4609 -14.539,18.0586 -24.676,27.5781 -6.25,5.8672 -10.976,16.2695 -6.164,24.6094 4.817,8.3515 16.184,9.4453 24.395,6.9609 13.32,-4.0117 26.289,-15.2812 36.23,-7.5664"
               style="fill:#7e1a2c;fill-opacity:1;fill-rule:nonzero;stroke:none"
               id="path146" />
          </g>
        </g>
      </g>
    </g>
  </g>
</svg>
